<svg id="Layer_1" height="512" viewBox="0 0 128 128" width="512" xmlns="http://www.w3.org/2000/svg"><g><g fill="#e6e7e8"><path d="m124.306 83.056-11.136-19.26c-1.379-2.386-4.441-3.209-6.828-1.829l-7.713 4.451c-1.157.668-1.985 1.747-2.331 3.038-.269 1.005-.211 2.042.14 3l-4.93 2.826c-1.244.715-2.735.848-4.089.372l-10.076-3.561c-2.21-.781-4.656-.822-6.89-.119l-11.087 3.495-.63-.512c-2.518-2.048-5.953-2.563-8.962-1.341l-5.526 2.245c-1.417.577-2.99.47-4.316-.298l-5.372-3.105c.352-.958.41-1.996.141-3.002-.346-1.291-1.174-2.37-2.331-3.038l-7.713-4.451c-2.388-1.378-5.449-.558-6.827 1.828l-11.138 19.262c-.668 1.156-.847 2.505-.501 3.796s1.173 2.369 2.33 3.037l7.713 4.451c.785.453 1.644.668 2.49.668 1.729 0 3.413-.896 4.338-2.495l.528-.913 10.278 8.093c-.174.824-.163 1.681.087 2.512.393 1.301 1.264 2.369 2.455 3.008.761.409 1.581.603 2.39.603.403 0 .801-.055 1.19-.149-.124.76-.095 1.542.134 2.303.396 1.313 1.276 2.393 2.479 3.037.769.413 1.596.608 2.413.608.449 0 .895-.061 1.326-.175-.073.675-.015 1.365.188 2.038.396 1.313 1.276 2.392 2.479 3.037.769.412 1.596.607 2.412.607.8 0 1.584-.198 2.296-.552.03.152.045.305.09.455.356 1.185 1.15 2.157 2.235 2.739.677.364 1.419.549 2.17.549.449 0 .902-.066 1.346-.2.056-.017.106-.047.161-.066l3.717 2.927c.894.725 1.963 1.082 3.026 1.082 1.258 0 2.508-.499 3.452-1.478.804-.834 1.251-1.882 1.336-2.954l.154.132c2.188 1.788 5.421 1.462 7.209-.725.743-.91 1.14-2.004 1.196-3.101 1.964 1.141 4.518.878 6.201-.759.986-.958 1.539-2.234 1.563-3.605l.88.732c1.107.913 2.558 1.318 3.979 1.117 1.44-.207 2.688-.988 3.512-2.201 1.47-2.164.968-5.205-1.143-6.924-.001 0-.001 0-.001 0l-4.067-3.308 16.596-9.52.607 1.05c.925 1.6 2.608 2.495 4.338 2.495.847 0 1.705-.215 2.49-.668l7.713-4.451c1.157-.668 1.984-1.746 2.33-3.037s.168-2.639-.501-3.796z"/><circle cx="65.499" cy="37.5" r="30.557"/></g><g><g><path d="m90.169 101.067-36.063-29.335c-2.236-1.819-5.285-2.275-7.956-1.189l-5.525 2.245c-1.694.688-3.611.556-5.193-.359l-6.165-3.563-9.965 17.234 40.762 32.098c1.532 1.242 3.76 1.106 5.129-.314 1.357-1.407 1.424-3.614.155-5.101l-.279-.327 2.967 2.527c1.756 1.434 4.367 1.172 5.802-.583 1.357-1.66 1.304-4.146-.202-5.618l1.99 1.786c1.63 1.463 4.115 1.414 5.686-.112 1.689-1.641 1.682-4.354-.016-5.986l-.755-.726 4.549 3.784c1.849 1.525 4.641 1.166 6.027-.874 1.211-1.783.725-4.226-.948-5.587z" fill="#ffd7e5"/><g fill="#ffd7e5"><path d="m93.732 68.866-5.726 3.284c-1.497.858-3.293 1.021-4.92.447l-10.076-3.561c-2.019-.713-4.215-.751-6.257-.107l-22.008 6.937c-2.314.729-3.605 3.189-2.889 5.507.704 2.281 3.096 3.588 5.397 2.95l16.668-4.625 21.055 17.142 18.72-10.739z"/><g><path d="m58.449 103.827c1.755.942 2.42 3.148 1.478 4.903l-2.513 4.678c-.942 1.753-3.147 2.418-4.901 1.477-1.755-.942-2.42-3.148-1.478-4.903l2.513-4.678c.942-1.754 3.147-2.419 4.901-1.477z"/><path d="m52.241 99.041c1.999 1.073 2.756 3.585 1.683 5.584l-2.862 5.328c-1.073 1.997-3.584 2.754-5.582 1.682-1.999-1.073-2.756-3.585-1.683-5.584l2.862-5.328c1.072-1.997 3.584-2.754 5.582-1.682z"/><path d="m45.835 93.533c1.999 1.073 2.756 3.585 1.683 5.584l-2.862 5.328c-1.073 1.997-3.584 2.754-5.582 1.682-1.999-1.073-2.756-3.585-1.683-5.584l2.862-5.328c1.073-1.997 3.585-2.753 5.582-1.682z"/><path d="m38.699 89.496c1.975 1.06 2.723 3.543 1.663 5.517l-1.965 3.658c-1.06 1.973-3.542 2.721-5.515 1.662-1.975-1.06-2.723-3.543-1.663-5.517l1.965-3.658c1.06-1.974 3.542-2.722 5.515-1.662z"/></g></g><g><path d="m12.734 89.475-7.713-4.451c-1.914-1.105-2.57-3.553-1.463-5.467l11.137-19.261c1.105-1.911 3.55-2.566 5.462-1.462l7.713 4.451c1.914 1.105 2.57 3.553 1.463 5.467l-11.137 19.261c-1.105 1.911-3.55 2.565-5.462 1.462z" fill="#0089ef"/><circle cx="22.285" cy="68.143" fill="#d4fbff" r="2.615"/></g><g><path d="m110.265 89.475 7.713-4.451c1.914-1.105 2.57-3.553 1.463-5.467l-11.137-19.261c-1.105-1.911-3.55-2.566-5.462-1.462l-7.713 4.451c-1.914 1.105-2.57 3.553-1.463 5.467l11.137 19.261c1.105 1.911 3.549 2.565 5.462 1.462z" fill="#0089ef"/><circle cx="100.714" cy="68.143" fill="#d4fbff" r="2.615"/></g></g><g><ellipse cx="61.499" cy="33.5" fill="#d4fbff" rx="29.557" ry="29.557" transform="matrix(.406 -.914 .914 .406 5.915 76.101)"/><path d="m61.499 6.943c15.821 0 28.737 12.43 29.519 28.057.025-.497.038-.997.038-1.5 0-16.324-13.233-29.557-29.557-29.557s-29.557 13.233-29.557 29.557c0 .503.013 1.003.038 1.5.782-15.627 13.699-28.057 29.519-28.057z" fill="#fff"/><g><path d="m71.797 32.387h-4.317c-1.684 1.21-3.745 1.932-5.981 1.932-2.235 0-4.297-.721-5.981-1.932h-4.317c-3.314 0-6 2.686-6 6v10.208c0 1.105.895 2 2 2h28.595c1.105 0 2-.895 2-2v-10.208c.001-3.314-2.685-6-5.999-6z" fill="#fa759e"/><g><g><ellipse cx="61.5" cy="24.123" fill="#fff" rx="10.239" ry="10.196"/><g fill="#3a2c60"><path d="m22.285 71.758c1.994 0 3.616-1.621 3.616-3.614s-1.622-3.615-3.616-3.615-3.616 1.622-3.616 3.615 1.622 3.614 3.616 3.614zm0-5.23c.892 0 1.616.725 1.616 1.615s-.725 1.614-1.616 1.614-1.616-.725-1.616-1.614c0-.89.725-1.615 1.616-1.615z"/><path d="m120.307 79.056-11.137-19.261c-1.38-2.386-4.443-3.206-6.828-1.828l-7.713 4.451c-1.157.669-1.984 1.747-2.33 3.038-.269 1.005-.211 2.042.14 3l-4.931 2.826c-1.243.714-2.732.85-4.088.372l-10.076-3.561c-2.209-.782-4.657-.824-6.891-.119l-11.086 3.494-.63-.513c-2.52-2.047-5.953-2.563-8.963-1.34l-5.526 2.245c-1.418.578-2.989.469-4.316-.298l-5.372-3.105c.352-.958.41-1.996.141-3.002-.346-1.291-1.173-2.369-2.33-3.038l-7.714-4.451c-2.387-1.378-5.449-.555-6.827 1.828l-11.139 19.263c-.668 1.156-.847 2.505-.501 3.796s1.174 2.369 2.331 3.037l7.713 4.451c.785.453 1.643.668 2.49.668 1.729 0 3.412-.896 4.337-2.495l.528-.913 10.278 8.093c-.174.824-.163 1.681.088 2.512.392 1.301 1.264 2.369 2.454 3.008.744.399 1.559.603 2.384.603.399 0 .801-.061 1.198-.157-.126.762-.097 1.547.133 2.311.396 1.313 1.275 2.393 2.478 3.037.769.413 1.597.608 2.414.608.449 0 .895-.061 1.325-.175-.073.676-.014 1.366.188 2.038.396 1.313 1.276 2.392 2.479 3.037.769.412 1.596.608 2.413.608.798 0 1.581-.197 2.291-.551.257 1.314 1.059 2.511 2.328 3.192.692.372 1.439.549 2.176.549.516 0 1.023-.096 1.507-.262l3.711 2.922c.894.725 1.963 1.082 3.027 1.082 1.257 0 2.508-.499 3.452-1.478.804-.834 1.251-1.882 1.335-2.953l.154.131c2.188 1.786 5.422 1.46 7.21-.725.743-.91 1.14-2.005 1.196-3.101 1.959 1.141 4.516.879 6.2-.759.986-.958 1.539-2.235 1.563-3.605l.881.732c1.107.913 2.554 1.318 3.979 1.117 1.44-.207 2.688-.988 3.511-2.201 1.47-2.164.968-5.206-1.142-6.924-.001 0-.001 0-.001 0l-4.067-3.308 16.596-9.52.607 1.049c.926 1.601 2.608 2.496 4.337 2.496.848 0 1.706-.215 2.491-.668l7.713-4.451c1.157-.668 1.985-1.746 2.331-3.037s.169-2.638-.5-3.795zm-102.976 8.456c-.828 1.432-2.665 1.923-4.097 1.097l-7.713-4.451c-.695-.4-1.191-1.048-1.399-1.822-.207-.774-.101-1.583.301-2.277l11.137-19.262c.556-.961 1.566-1.498 2.604-1.498.508 0 1.022.129 1.493.4l7.714 4.451c.694.4 1.19 1.048 1.398 1.823.207.774.101 1.583-.301 2.276zm16.023 11.94c-.72-.387-1.247-1.034-1.485-1.823-.237-.79-.156-1.621.23-2.34l1.965-3.657c.555-1.032 1.617-1.619 2.714-1.619.49 0 .987.117 1.448.364.72.387 1.247 1.034 1.485 1.823s.156 1.62-.23 2.339l-1.589 2.96-.376.701c-.801 1.491-2.667 2.053-4.162 1.252zm6.193 5.794c-.73-.393-1.267-1.05-1.508-1.853-.242-.802-.159-1.646.233-2.377l1.005-1.871s.001-.001.001-.001l.912-1.697.945-1.759c.563-1.048 1.643-1.645 2.757-1.645.497 0 1.002.119 1.471.37.731.393 1.267 1.05 1.509 1.853.241.802.158 1.646-.234 2.378l-2.861 5.327c-.817 1.518-2.713 2.087-4.23 1.275zm6.406 5.508c-.731-.393-1.268-1.051-1.509-1.853-.242-.803-.159-1.646.233-2.377l2.862-5.329c.563-1.048 1.642-1.645 2.756-1.645.498 0 1.003.12 1.472.371.731.393 1.267 1.05 1.509 1.852.241.802.158 1.646-.234 2.378l-.324.603c-.015.027-.037.049-.051.076l-2.513 4.679c-.004.008-.006.017-.01.025-.831 1.472-2.691 2.023-4.191 1.22zm7.032 3.25c-1.263-.678-1.741-2.248-1.083-3.515.012-.022.028-.042.04-.064l2.526-4.702c.481-.842 1.36-1.326 2.274-1.326.417 0 .841.1 1.234.311 1.273.684 1.753 2.276 1.069 3.549l-2.513 4.678c-.682 1.272-2.271 1.752-3.547 1.069zm11.489 3.186c-1.018 1.053-2.645 1.153-3.791.222l-3.157-2.486c.297-.304.558-.653.769-1.045l2.244-4.178 3.808 3.448.24.281c.94 1.101.892 2.716-.113 3.758zm25.815-11.097c-.504.741-1.264 1.219-2.141 1.344-.864.128-1.748-.123-2.419-.677l-19.055-16.051c-.421-.358-1.053-.304-1.409.118s-.304 1.053.118 1.409l14.487 12.25.733.705c.624.6.969 1.406.971 2.271.002.864-.338 1.673-.958 2.275-1.19 1.155-3.088 1.194-4.321.086l-15.719-13.93c-.412-.364-1.046-.326-1.412.086-.366.414-.327 1.046.086 1.412l13.696 12.117c1.098 1.086 1.153 2.991.117 4.259-1.09 1.332-3.062 1.53-4.38.454l-7.391-6.532c.097-.662.064-1.342-.136-2.004-.357-1.185-1.15-2.157-2.235-2.739-1.051-.564-2.224-.662-3.3-.393l-.233-.211c-.026-.384-.083-.767-.197-1.144-.396-1.314-1.276-2.393-2.479-3.037-1.155-.62-2.479-.759-3.742-.418.076-.68.02-1.375-.184-2.053-.396-1.313-1.276-2.393-2.479-3.037-1.451-.777-3.106-.764-4.505-.141-.035-.298-.088-.595-.176-.889-.393-1.301-1.264-2.369-2.455-3.008-2.465-1.326-5.546-.394-6.869 2.069l-1.654 3.078-10.047-7.912 9.03-15.618 5.3 3.063c1.865 1.076 4.076 1.228 6.069.419l5.525-2.245c2.167-.88 4.612-.586 6.516.732l-8.597 2.709c-2.828.893-4.418 3.923-3.544 6.756.868 2.816 3.779 4.405 6.62 3.619l16.152-4.483 25.866 21.04c1.314 1.07 1.643 2.936.751 4.251zm-5.214-10.463-20.521-16.709c-.181-.147-.404-.225-.632-.225-.09 0-.18.012-.268.036l-16.667 4.626c-1.797.497-3.627-.506-4.175-2.281-.552-1.786.451-3.696 2.234-4.258l22.008-6.937c1.822-.576 3.819-.542 5.623.096l10.076 3.562c1.901.67 3.998.482 5.749-.523l4.862-2.787 8.792 15.206.172.297zm33.802-13.295c-.208.774-.704 1.422-1.399 1.822l-7.713 4.451c-1.433.828-3.269.335-4.097-1.097l-11.137-19.261c-.401-.693-.508-1.502-.301-2.276.208-.775.704-1.423 1.398-1.823l7.713-4.451c.471-.271.985-.4 1.493-.4 1.038 0 2.049.537 2.604 1.498l11.136 19.26c.404.694.51 1.503.303 2.277z"/><path d="m100.714 64.528c-1.994 0-3.616 1.622-3.616 3.615s1.622 3.614 3.616 3.614 3.616-1.621 3.616-3.614-1.622-3.615-3.616-3.615zm0 5.23c-.892 0-1.616-.725-1.616-1.614 0-.891.725-1.615 1.616-1.615s1.616.725 1.616 1.615c0 .889-.725 1.614-1.616 1.614z"/><path d="m61.499 64.057c16.849 0 30.557-13.708 30.557-30.557s-13.708-30.557-30.557-30.557-30.557 13.708-30.557 30.557 13.708 30.557 30.557 30.557zm0-59.114c15.746 0 28.557 12.811 28.557 28.557s-12.811 28.557-28.557 28.557-28.557-12.811-28.557-28.557 12.811-28.557 28.557-28.557z"/><path d="m67 49.595h-9.667c-.553 0-1 .447-1 1s.447 1 1 1h9.667c.553 0 1-.447 1-1s-.447-1-1-1z"/><path d="m47.202 51.595h5.798c.553 0 1-.447 1-1s-.447-1-1-1h-5.798c-.552 0-1-.448-1-1v-10.208c0-2.757 2.243-5 5-5h3.995c1.799 1.218 3.968 1.932 6.302 1.932 2.335 0 4.504-.714 6.303-1.932h3.995c2.757 0 5 2.243 5 5v10.208c0 .552-.448 1-1 1h-4.464c-.553 0-1 .447-1 1s.447 1 1 1h4.464c1.654 0 3-1.346 3-3v-10.208c0-3.859-3.141-7-7-7h-1.761c1.681-1.957 2.704-4.492 2.704-7.264 0-6.174-5.042-11.196-11.24-11.196-6.197 0-11.239 5.022-11.239 11.196 0 2.772 1.022 5.306 2.703 7.264h-1.761c-3.859 0-7 3.141-7 7v10.208c-.001 1.654 1.345 3 2.999 3zm14.297-36.668c5.095 0 9.24 4.125 9.24 9.196 0 5.07-4.146 9.195-9.24 9.195s-9.239-4.125-9.239-9.195c0-5.071 4.144-9.196 9.239-9.196z"/></g></g></g></g></g></g></g></svg>