<svg id="Capa_1" enable-background="new 0 0 512 512" height="512" viewBox="0 0 512 512" width="512" xmlns="http://www.w3.org/2000/svg"><g><path d="m115.906 383.207c1.749 1.723 4.156 2.804 6.816 2.804h18.256c17.776 0 32.186 14.408 32.188 32.183.003-17.775 14.413-32.183 32.188-32.183h18.256c5.322 0 9.636-4.314 9.636-9.636v-9.653c.003.002.007.005.01.007-9.547-6.527-17.904-16.395-18.776-28.244l-2.026-27.506-.006-.084-.97-13.176c-1.917-26.031 17.859-48.118 43.959-48.438 26.233-.321 47.04 21.872 45.119 47.956l-.188 2.556-.849 11.528-2.001 27.164c-.873 11.851-9.232 21.72-18.78 28.247.005-.003.009-.006.014-.01v9.653c0 5.322 4.314 9.636 9.636 9.636h18.256c17.776 0 32.186 14.409 32.188 32.184.003-17.775 14.413-32.184 32.188-32.184h18.256c.759 0 1.498-.088 2.207-.254l.009.037c4.194-.986 7.42-4.827 7.42-9.419v-9.653c.005.003.01.006.014.01-9.548-6.527-17.908-16.396-18.781-28.247l-2.026-27.506-.611-8.299-.365-4.962c-1.917-26.031 17.859-48.118 43.959-48.438 14.154-.173 26.728 6.207 35.005 16.217 1.455-9.788 2.209-19.804 2.209-29.997 0-111.738-90.581-202.319-202.319-202.319s-202.316 90.581-202.316 202.319c0 10.187.754 20.198 2.207 29.98 7.992-9.746 20.049-16.031 33.883-16.2 26.233-.321 47.04 21.872 45.119 47.956l-.668 9.072-.369 5.013-2.001 27.164c-.872 11.845-9.224 21.71-18.766 28.237v9.653c0 2.666 1.087 5.077 2.82 6.832z" fill="#bed8fb"/><path d="m333.795 48.68c45.589 37.097 74.711 93.651 74.711 157.008 0 16.425-1.958 32.392-5.652 47.682 5.52-2.551 11.685-4.009 18.25-4.09 14.154-.173 26.728 6.207 35.005 16.217 1.455-9.788 2.209-19.804 2.209-29.997.001-84.17-51.399-156.335-124.523-186.82z" fill="#9dc6fb"/><path d="m342.3 122.147c-5.185 3.484-6.026 10.778-1.77 15.35l1.356 1.456c14.121 15.167 18.403 37.037 11.046 56.41-2.888 7.605 2.313 15.858 10.42 16.534l11.781.982c22.579 1.882 44.242 9.777 62.736 22.865l19.947 14.116c.333-4.744.502-9.533.502-14.361 0-66.345-31.934-125.231-81.27-162.126l-3.791 9.898c-6.065 15.84-16.878 29.418-30.957 38.876z" fill="#95d6a4"/><path d="m377.049 73.374-3.791 9.898c-.669 1.747-1.396 3.467-2.179 5.156 23.566 33.079 37.427 73.55 37.427 117.26 0 4.845-.171 9.65-.506 14.41 10.562 3.846 20.612 9.096 29.869 15.647l19.947 14.116c.333-4.744.502-9.532.502-14.361.001-66.345-31.933-125.231-81.269-162.126z" fill="#78c2a4"/><path d="m98.821 175.197 5.605-3.149c4.813-2.704 10.512 1.704 9.104 7.042l-4.611 17.486c-3.487 13.222-.909 27.311 7.034 38.442l11.301 15.837c4.108 5.756 5.281 13.104 3.171 19.854l-.682 2.181c3.858 7.197 5.795 15.551 5.147 24.347l-.668 9.072-.369 5.013-1.058 14.362c4.876 7.896 11.824 14.61 20.479 19.245 6.718 3.598 15.061 1.676 19.529-4.498l30.442-42.07c2.602-3.596 5.445-7 8.503-10.188 2.233-16.922 13.698-30.962 29.49-36.434-.965-3.53-3.068-6.816-6.342-9.265l-8.167-6.108c-16.462-12.312-28.736-29.392-35.157-48.921l-3.025-9.202c-4.257-12.948-.132-27.181 10.389-35.845 7.626-6.28 12.043-15.641 12.043-25.519v-20.972c0-7.886 2.819-15.511 7.948-21.501l35.291-41.215c-93.553.808-171.953 65.108-194.208 151.909 13.461.163 26.861-3.191 38.811-9.903z" fill="#95d6a4"/><path d="m389.361 386.064c5.176-.018 9.553-4.341 9.553-9.689v-9.653c.005.003.01.006.014.01-9.548-6.527-17.908-16.396-18.781-28.247l-2.026-27.506-.611-8.299-.365-4.962c-.848-11.511 2.547-22.25 8.854-30.677-4.78.241-9.542 1.408-14.009 3.524l-1.198.567c-7.836 3.712-16.906 3.801-24.813.242l-8.595-3.868c-7.792-3.507-16.976-.662-21.422 6.635l-9.303 15.272c-8.268 13.573-6.021 31.065 5.41 42.108l10.809 10.441c7.631 7.372 6.408 19.93-2.503 25.69-6.859 4.434-12.042 10.893-14.922 18.358h1.191c17.776 0 32.186 14.409 32.188 32.184.003-17.775 14.413-32.184 32.188-32.184h18.256z" fill="#95d6a4"/><path d="m389.296 386.064c5.204.018 9.618-4.319 9.618-9.689v-9.653c.005.003.01.006.014.01-9.548-6.527-17.908-16.396-18.781-28.247l-1.934-26.256c-17.427 28.08-41.538 51.577-70.109 68.271-1.027 1.76-1.915 3.604-2.651 5.513h1.191c17.776 0 32.186 14.409 32.188 32.184.003-17.775 14.413-32.184 32.188-32.184h18.256" fill="#78c2a4"/><path d="m173.167 448.812v27.394c0 1.443 1.17 2.613 2.613 2.613h26.637v-30.007z" fill="#ffece4"/><path d="m338.833 448.812v-30.612c0-17.777-14.411-32.188-32.188-32.188h-18.256l-26.469 16.995c-.827.531-1.788.813-2.771.813h-6.3c-.982 0-1.944-.282-2.771-.813l-26.469-16.995h-18.256c-17.777 0-32.188 14.411-32.188 32.188v30.612h29.25v30.007h107.167v-30.007z" fill="#9dc6fb"/><path d="m309.583 448.812v30.007h26.637c1.443 0 2.613-1.17 2.613-2.613v-27.394z" fill="#ffece4"/><path d="m278.753 376.375v-9.653c-7.976 5.456-16.785 8.581-22.753 8.581s-14.776-3.124-22.753-8.581v9.653c0 5.322-4.314 9.636-9.636 9.636l26.469 16.995c.827.531 1.788.813 2.771.813h6.3c.982 0 1.944-.282 2.771-.813l26.469-16.995c-5.324 0-9.638-4.314-9.638-9.636z" fill="#ffddce"/><path d="m472.312 386.011h-18.256l-23.818 15.293c-2.557 1.642-5.532 2.515-8.571 2.515-3.039 0-6.014-.873-8.571-2.515l-23.818-15.293h-18.256c-17.777 0-32.188 14.411-32.188 32.188v58.006c0 1.443 1.17 2.613 2.613 2.613h160.441c1.443 0 2.613-1.17 2.613-2.613v-58.006c-.001-17.777-14.412-32.188-32.189-32.188z" fill="#617881"/><path d="m444.419 376.375v-9.653c-7.976 5.456-16.785 8.581-22.753 8.581s-14.776-3.124-22.753-8.581v9.653c0 5.322-4.314 9.636-9.636 9.636l23.818 15.293c2.557 1.642 5.532 2.515 8.571 2.515 3.039 0 6.014-.873 8.571-2.515l23.818-15.293c-5.321 0-9.636-4.314-9.636-9.636z" fill="#d59b8b"/><path d="m223.611 386.011-8.547 27.664c-.924 2.992 2.184 5.636 4.989 4.243l30.027-14.912z" fill="#bed8fb"/><path d="m288.389 386.011 8.547 27.664c.924 2.992-2.184 5.636-4.989 4.243l-30.027-14.912z" fill="#bed8fb"/><path d="m430.238 401.304c-2.557 1.642-5.532 2.515-8.571 2.515-3.039 0-6.014-.873-8.571-2.515l-23.818-15.293 32.389 92.807 32.389-92.807z" fill="#f1eaf9"/><path d="m90.333 410.202c17.453 0 32.352-10.048 38.215-24.191h-5.826c-5.322 0-9.636-4.314-9.636-9.636v-9.653c-7.976 5.456-16.785 8.581-22.753 8.581s-14.776-3.125-22.753-8.581v9.653c0 5.322-4.314 9.636-9.636 9.636h-5.825c5.863 14.143 20.761 24.191 38.214 24.191z" fill="#ffe4c1"/><path d="m140.978 386.011h-12.43c-5.863 14.143-20.761 24.191-38.215 24.191s-32.352-10.048-38.215-24.191h-12.43c-17.777 0-32.188 14.411-32.188 32.188v58.007c0 1.443 1.17 2.613 2.613 2.613h160.441c1.443 0 2.613-1.17 2.613-2.613v-58.007c0-17.777-14.412-32.188-32.189-32.188z" fill="#e28086"/><path d="m83.157 290.113 2.192 2.192c2.116 2.116 5.546 2.116 7.662 0l1.659-1.659c6.597-6.597 17.293-6.597 23.89 0l15.661 15.661.668-9.072c1.921-26.084-18.886-48.277-45.119-47.955-26.1.32-45.876 22.407-43.959 48.438l.401 5.448 13.053-13.053c6.599-6.597 17.295-6.597 23.892 0z" fill="#617881"/><path d="m118.561 290.646c-6.597-6.597-17.293-6.597-23.89 0l-1.659 1.659c-2.116 2.116-5.546 2.116-7.662 0l-2.192-2.192c-6.597-6.597-17.293-6.597-23.891 0l-13.053 13.053.575 7.812 2.026 27.506c1.602 21.747 28.412 36.818 41.519 36.818s39.917-15.071 41.519-36.818l2.001-27.164.369-5.013z" fill="#fff1dd"/><path d="m243.297 283.416c10.485 10.485 24.706 16.375 39.534 16.375h17.538l.188-2.556c1.921-26.084-18.886-48.277-45.119-47.955-26.1.32-45.876 22.407-43.959 48.438l.97 13.176 27.478-27.478c.93-.93 2.439-.93 3.37 0z" fill="#ffd064"/><path d="m282.83 299.792c-14.828 0-29.049-5.89-39.534-16.375-.931-.93-2.439-.93-3.37 0l-27.478 27.478.006.084 2.026 27.506c1.602 21.747 28.412 36.818 41.519 36.818s39.917-15.071 41.519-36.818l2.001-27.164.849-11.528h-17.538z" fill="#ffece4"/><path d="m421.104 249.28c-26.1.32-45.876 22.407-43.959 48.438l3.002 40.767c1.602 21.747 28.412 36.818 41.519 36.818s39.917-15.071 41.519-36.818l3.038-41.249c1.921-26.084-18.886-48.277-45.119-47.956z" fill="#dfaca0"/><path d="m90.348 340.969c8.374 0 15.187-6.813 15.187-15.188v-5.492c0-4.143-3.358-7.5-7.5-7.5s-7.5 3.357-7.5 7.5v5.492c0 .104-.084.188-.187.188-4.142 0-7.5 3.357-7.5 7.5s3.358 7.5 7.5 7.5z"/><path d="m263.702 312.789c-4.142 0-7.5 3.357-7.5 7.5v5.492c0 .104-.083.188-.187.188-4.142 0-7.5 3.357-7.5 7.5s3.358 7.5 7.5 7.5c8.374 0 15.187-6.813 15.187-15.188v-5.492c0-4.143-3.358-7.5-7.5-7.5z"/><path d="m472.312 378.511h-18.256c-1.178 0-2.136-.958-2.136-2.136v-5.893c9.77-7.58 17.781-18.352 18.746-31.447 1.017-13.808 2.026-27.507 3.039-41.249.904-12.275-2.602-24.473-9.729-34.364.563-4.237.998-8.509 1.304-12.796.015-.15.026-.3.032-.451.338-4.884.508-9.785.508-14.675 0-68.253-32.758-128.998-83.377-167.34-.544-.563-1.182-1.047-1.903-1.425-34.858-25.789-77.95-41.053-124.54-41.053-36.404 0-72.269 9.471-103.718 27.388-30.493 17.372-56.375 42.34-74.847 72.203-2.179 3.522-1.09 8.145 2.433 10.323 3.522 2.18 8.144 1.091 10.324-2.433 32.483-52.513 86.481-85.836 146.973-91.59l-23.936 27.954c-6.288 7.344-9.75 16.712-9.75 26.379v20.972c0 7.665-3.394 14.856-9.311 19.73-13.005 10.709-18.008 27.971-12.746 43.977l3.025 9.201c6.937 21.099 20.004 39.281 37.79 52.584l8.106 6.063c-4.671 2.638-8.946 6.025-12.686 10.101-6.831 7.443-11.257 16.47-12.986 26.225-2.672 2.922-5.189 6.009-7.501 9.204l-30.442 42.069c-2.257 3.12-6.519 4.1-9.912 2.283-6.545-3.506-12.159-8.528-16.354-14.608 1.601-21.74.639-8.67 1.909-25.921.649-8.818-.978-17.597-4.587-25.509 2.513-8.76.881-18.346-4.424-25.779l-11.301-15.837c-6.669-9.346-8.815-21.071-5.887-32.173l4.611-17.486c1.411-5.35-.505-10.995-4.882-14.381-4.377-3.387-10.322-3.822-15.148-1.113l-5.605 3.149c-7.748 4.352-16.267 7.154-25.028 8.323 1.388-4.408 2.936-8.773 4.644-13.092 1.523-3.853-.364-8.21-4.216-9.733-3.851-1.521-8.209.364-9.732 4.216-9.709 24.551-14.633 50.501-14.633 77.13 0 9.327.619 18.698 1.841 27.902-7.209 10.005-10.626 22.17-9.69 34.866.114 1.549 2.372 32.211 3.002 40.767.965 13.095 8.976 23.866 18.746 31.447v5.893c0 1.178-.958 2.136-2.136 2.136h-18.258c-21.884-.001-39.688 17.802-39.688 39.687v12.662c0 4.143 3.358 7.5 7.5 7.5s7.5-3.357 7.5-7.5v-12.662c0-13.613 11.075-24.688 24.688-24.688h7.757c8.258 14.65 24.868 24.191 42.888 24.191s34.63-9.541 42.888-24.191h7.757c13.6 0 24.667 11.054 24.688 24.65v53.158h-14.25v-30.477c0-4.143-3.358-7.5-7.5-7.5s-7.5 3.357-7.5 7.5v30.477h-92.166v-30.477c0-4.143-3.358-7.5-7.5-7.5s-7.5 3.357-7.5 7.5v30.477h-14.25v-5.457c0-4.143-3.358-7.5-7.5-7.5s-7.5 3.357-7.5 7.5v10.345c0 5.576 4.537 10.112 10.113 10.112h160.441c.903 0 1.779-.12 2.613-.343.834.223 1.709.343 2.613.343h160.441c.903 0 1.779-.12 2.613-.343.834.223 1.709.343 2.613.343h160.441c5.576 0 10.113-4.536 10.113-10.112v-58.007c-.001-21.886-17.805-39.689-39.689-39.689zm-32.333 7.625-13.793 8.856c-2.702 1.734-6.336 1.734-9.038 0l-13.793-8.856c1.429-2.055 2.42-4.436 2.838-7.007 5.712 2.399 11.176 3.673 15.474 3.673s9.762-1.275 15.474-3.673c.417 2.571 1.408 4.952 2.838 7.007zm-122.896 70.176h14.25v15.007h-14.25zm21.75-61.306c-5.153-7.132-12.616-12.491-21.282-14.971 1.96-2.341 4.274-4.389 6.895-6.083 12.958-8.376 14.758-26.645 3.643-37.384l-10.809-10.441c-8.971-8.666-10.705-22.158-4.215-32.812l9.303-15.271c2.472-4.06 7.606-5.648 11.938-3.699l8.595 3.868c9.169 4.127 19.54 4.348 28.824.685-1.838 6.152-2.552 12.688-2.06 19.372.101 1.375 2.925 39.717 3.002 40.766.964 13.095 8.976 23.866 18.746 31.447v5.893c0 1.178-.958 2.136-2.137 2.136h-18.255c-13.232-.001-24.972 6.509-32.188 16.494zm-51.773 12.111-9.958-4.946 7.035-4.517zm-28.606-10.799h-4.907l-15.858-10.182c1.429-2.055 2.42-4.436 2.838-7.007 5.712 2.399 11.176 3.673 15.474 3.673s9.763-1.275 15.474-3.673c.417 2.571 1.408 4.952 2.837 7.007zm-23.556 5.853-9.958 4.946 2.923-9.463zm21.102-34.368c-9.497 0-32.769-12.613-34.039-29.869l-1.78-24.164 21.574-21.574c11.455 9.771 25.855 15.097 41.076 15.097h9.465l-2.257 30.642c-1.27 17.254-24.542 29.868-34.039 29.868zm32.445 10.708c-.02 0-.041 0-.061 0-1.175-.003-2.131-.96-2.131-2.136v-5.893c9.77-7.58 17.782-18.352 18.746-31.447l.275-3.735c.511.549 1.04 1.087 1.585 1.615l10.809 10.44c4.154 4.015 3.496 10.857-1.365 13.999-6.686 4.323-12.033 10.191-15.675 17.156h-12.183zm132.751-121.732c21.776-.195 38.432 17.734 37.623 38.564l.023.002-3.136 42.588c-1.292 17.549-25.338 30.296-34.51 29.858-9.173.437-33.217-12.31-34.509-29.858l-3.136-42.588.023-.002c-.81-20.83 15.846-38.759 37.622-38.564zm29.622-21.279v.22l-8.615-6.097c-19.572-13.852-42.548-22.226-66.446-24.217l-11.781-.981c-2.047-.171-3.141-1.447-3.611-2.193s-1.15-2.284-.421-4.205c8.433-22.205 3.617-46.799-12.569-64.184l-1.355-1.455c-.727-.78-.747-1.66-.695-2.114.052-.455.272-1.306 1.157-1.9 15.444-10.375 27.125-25.043 33.78-42.419l.113-.295c43.014 35.764 70.443 89.659 70.443 149.84zm-211.431.967-8.167-6.108c-15.308-11.449-26.554-27.099-32.525-45.258l-3.025-9.201c-3.316-10.086-.163-20.964 8.032-27.713 9.39-7.733 14.775-19.145 14.775-31.309v-20.972c0-6.092 2.182-11.995 6.145-16.623l33.046-38.594c40.998.346 79.016 13.419 110.288 35.455l-1.702 4.444c-5.543 14.474-15.272 26.691-28.137 35.333-4.296 2.887-7.1 7.491-7.693 12.633-.593 5.143 1.09 10.265 4.618 14.055l1.355 1.455c12.265 13.174 15.914 31.811 9.524 48.637-2.221 5.848-1.582 12.236 1.753 17.527 3.335 5.292 8.822 8.624 15.056 9.145l11.781.98c21.229 1.77 41.64 9.209 59.026 21.514l2.915 2.063c-4.967-1.471-10.17-2.211-15.44-2.149-15.145.185-29.024 6.618-38.868 18.08-4.63.596-9.112 1.911-13.365 3.925l-1.198.567c-5.86 2.776-12.612 2.841-18.524.182l-8.595-3.868c-11.218-5.051-24.504-.933-30.905 9.573l-4.186 6.872c-2.38-6.975-6.228-13.445-11.365-18.907-12.203-12.974-30.523-19.041-48.632-15.369-1.578-2.428-3.591-4.576-5.987-6.369zm16.143 20.312c20.949-.188 36.825 16.301 37.619 35.513h-10.318c-12.931 0-25.087-5.035-34.229-14.178-1.867-1.868-4.349-2.896-6.989-2.896s-5.123 1.028-6.988 2.895l-15.773 15.773c.161-20.265 15.999-36.853 36.678-37.107zm-165.667 0c19.821-.178 34.845 14.528 37.287 31.849l-3.286-3.286c-9.509-9.508-24.986-9.51-34.497 0l-.187.188-.719-.719c-4.607-4.608-10.733-7.146-17.249-7.146-6.286 0-12.209 2.362-16.756 6.666 4.1-15.463 17.914-27.338 35.407-27.552zm12.632-75.044 3.031-1.703-3.858 14.631c-4.069 15.428-1.087 31.724 8.181 44.711l6.812 9.547c-8.11-4.731-17.444-7.252-26.981-7.14-10.166.124-19.762 3.064-27.947 8.448-1.449-19.388-.041-38.92 4.21-57.765 12.8-.747 25.333-4.427 36.552-10.729zm-48.549 124.306 10.625-10.625c3.665-3.664 9.605-3.677 13.283 0 0 .001.001.001.001.001l2.191 2.19c2.439 2.44 5.684 3.784 9.135 3.784s6.695-1.344 9.134-3.783l1.659-1.659c3.663-3.661 9.621-3.663 13.284 0l13.233 13.232c-2.065 28.034 1.189-16.135-2.118 28.752-1.271 17.256-24.542 29.869-34.039 29.869s-32.769-12.613-34.04-29.869zm36.387 96.661c-9.944 0-19.225-4.046-25.467-10.652 5.204-2.307 9.054-7.132 9.993-12.92 5.712 2.399 11.176 3.673 15.474 3.673s9.762-1.275 15.474-3.673c.939 5.788 4.789 10.614 9.993 12.92-6.242 6.606-15.523 10.652-25.467 10.652zm50.646-24.191h-18.256c-1.178 0-2.136-.958-2.136-2.136v-5.893c8.526-6.615 15.713-15.66 18.046-26.559 3.398 2.924 7.12 5.482 11.102 7.615 9.98 5.345 22.509 2.458 29.146-6.713l25.911-35.809c4.31 58.534.427 5.796 2.211 30.019.965 13.095 8.976 23.866 18.746 31.447v5.893c0 1.178-.958 2.136-2.136 2.136h-18.256c-13.233 0-24.973 6.51-32.188 16.495-7.217-9.985-18.958-16.495-32.19-16.495zm53.938 92.807h-14.25v-15.007h14.25zm15-30.476c0-4.143-3.358-7.5-7.5-7.5s-7.5 3.357-7.5 7.5v.47h-14.25c0-26.777 0-22.655 0-23.151.021-13.596 11.088-24.65 24.688-24.65h8.089l-5.546 17.951c-1.308 4.233.028 8.823 3.404 11.693 3.349 2.848 8.09 3.466 12.086 1.479l27.218-13.517c.737.133 1.487.2 2.244.2h6.3c.757 0 1.508-.068 2.244-.2l27.216 13.517c3.931 1.953 8.683 1.416 12.088-1.479 3.376-2.87 4.712-7.46 3.404-11.693l-5.546-17.951h6.726c.125.003.221.003.333 0h1.03c13.613 0 24.688 11.075 24.688 24.688v23.112h-14.25v-.47c0-4.143-3.358-7.5-7.5-7.5s-7.5 3.357-7.5 7.5v30.477h-92.167v-30.476zm136.416-22.643c0-13.613 11.075-24.688 24.688-24.688h12.93l6.687 19.162c1.364 3.911 5.639 5.977 9.552 4.61 3.911-1.364 5.975-5.642 4.61-9.552l-1.277-3.661 5.521 3.545c7.69 4.937 17.55 4.94 25.246 0l5.52-3.545-18.143 51.986-4.806-13.771c-1.364-3.91-5.64-5.974-9.552-4.609-3.911 1.365-5.975 5.642-4.61 9.553l8.407 24.09h-35.522v-30.477c0-4.143-3.358-7.5-7.5-7.5s-7.5 3.357-7.5 7.5v30.477h-14.25v-53.12zm150.667 53.119h-14.25v-30.477c0-4.143-3.358-7.5-7.5-7.5s-7.5 3.357-7.5 7.5v30.477h-35.522l27.154-77.808h12.93c13.613 0 24.688 11.075 24.688 24.688z"/><path d="m429.369 312.789c-4.142 0-7.5 3.357-7.5 7.5v5.492c0 .104-.084.188-.187.188-4.142 0-7.5 3.357-7.5 7.5s3.358 7.5 7.5 7.5c8.374 0 15.187-6.813 15.187-15.188v-5.492c0-4.143-3.358-7.5-7.5-7.5z"/><circle cx="256.015" cy="428.819" r="7.5"/><circle cx="256.015" cy="453.819" r="7.5"/></g></svg>