<svg id="Capa_1" enable-background="new 0 0 495.514 495.514" height="512" viewBox="0 0 495.514 495.514" width="512" xmlns="http://www.w3.org/2000/svg"><g><path d="m409.772 370.025 78.873 78.873c9.159 9.159 9.159 24.008 0 33.167l-6.313 6.314c-9.159 9.159-24.008 9.159-33.167 0l-78.415-78.415-56.453-57.314 44.39-37.418z" fill="#d7d0d6"/><circle cx="231.157" cy="231.423" fill="#fee45a" r="231.157"/><path d="m83.14 211.685c0-47.187 14.143-91.068 38.417-127.643h-68.477c-33.151 40.006-53.08 91.364-53.08 147.381 0 127.665 103.493 231.157 231.157 231.157 33.546 0 65.428-7.154 94.197-20.006-3.661.172-7.353.268-11.057.268-127.664 0-231.157-103.492-231.157-231.157z" fill="#fedf30"/><g><g id="XMLID_536_"><path d="m395.514 229.299-258.38-2.466-58.986 84.67 4.289 33.068c5.12 6.58 10.68 12.8 16.62 18.61l64.832 16.575h148.257l44.691-16.575c30.74-30.07 51.01-70.83 54.78-116.27z" fill="#97da7b"/></g></g><path d="m95.538 286.54-17.39 24.962 4.289 33.068c5.12 6.58 10.68 12.8 16.62 18.61l53.566 13.695c-25.516-24.977-45.274-55.81-57.085-90.335z" fill="#80d261"/><path d="m71.482 216.495-27.205 30.415c1.73 20.92 6.97 40.85 15.11 59.2h.01l39.365-6.294 38.372-70.518z" fill="#97da7b"/><path d="m99.784 297.938c-9.89-24.575-15.682-51.237-16.525-79.146l-11.777-2.297-27.205 30.415c1.73 20.92 6.97 40.85 15.11 59.2h.01l39.365-6.294z" fill="#80d261"/><path d="m33.244 111.934c3.181 9.141 7.741 17.808 13.638 25.76l34.617 47.735c4.089 5.637 6.907 11.947 8.378 18.752l2.596 12.013c3.247 15.029 16.765 25.938 32.142 25.938 15.375 0 28.893-10.907 32.143-25.938l2.596-12.012c1.471-6.808 4.289-13.117 8.377-18.753l34.62-47.736c12.752-17.202 19.313-37.64 18.972-59.109-.395-24.994-10.382-48.606-28.12-66.488-2.564-2.584-5.261-4.988-8.054-7.244-64.35 12.997-119.011 52.716-151.905 107.082z" fill="#fedf30"/><path d="m353.02 119.958-8.772-31.538c-31.72-25.84-72.2-41.32-116.3-41.32-93.03 0-169.97 68.93-182.52 158.5h.01l37.581 21.233h217.876l68.415-52.546z" fill="#97da7b"/><path d="m83.647 226.833c-.324-5.009-.507-10.056-.507-15.147 0-47.187 14.143-91.068 38.417-127.643h-4.302c-38.205 28.741-64.882 71.983-71.828 121.557h.01l37.581 21.233z" fill="#80d261"/><path d="m156.757 216.195 2.596-12.012c1.471-6.808 4.289-13.117 8.377-18.753l34.62-47.736c12.752-17.202 19.313-37.64 18.972-59.109-.169-10.729-2.118-21.198-5.677-31.074-69.486 4.58-128.447 47.67-155.751 108.126l21.605 29.793c4.089 5.637 6.907 11.947 8.378 18.752l2.596 12.013c.833 3.857 2.347 7.439 4.39 10.638h55.503c2.043-3.2 3.557-6.782 4.391-10.638z" fill="#80d261"/><path d="m373.517 118.36-24.878 3.657-61.258 92.156 69.199 15.126 53.887-23.699c-4.56-32.59-17.65-62.44-36.95-87.24z" fill="#97da7b"/><g id="XMLID_535_"><g><path d="m412.267 231.42c0 5.22-.22 10.38-.65 15.49h-.01-253.03c-2.948 0-5.719 1.406-7.46 3.785l-68.68 93.874c-9.16-11.76-16.93-24.66-23.05-38.46h.01l40.708-55.643c1.081-1.478.026-3.557-1.805-3.557h-54.023c-.43-5.11-.65-10.27-.65-15.49 0-8.76.61-17.38 1.8-25.82h.01 212.286c.493 0 .956-.235 1.247-.633l85.267-116.536.01-.01c10.85 8.83 20.68 18.88 29.27 29.94l-62.032 84.783c-.747 1.021-.018 2.457 1.247 2.457h97.726.01c1.189 8.43 1.799 17.06 1.799 25.82z" fill="#fdf6ec"/></g></g><g fill="#fef1da"><path d="m106.098 312.23c-7.197-14.875-12.838-30.641-16.732-47.084l-29.969 40.964h-.01c6.12 13.8 13.89 26.7 23.05 38.46z"/><path d="m85.807 246.91c-1.756-11.485-2.667-23.248-2.667-35.225 0-2.036.036-4.063.088-6.085h-37.791-.01c-1.19 8.44-1.8 17.06-1.8 25.82 0 5.22.22 10.38.65 15.49z"/></g><path d="m159.046 205.6h-68.863l2.289 10.595c3.247 15.029 16.765 25.938 32.142 25.938 15.375 0 28.893-10.907 32.143-25.938z" fill="#fef1da"/><path d="m126.466 3.444c-43.218-1.018-78.572 33.712-78.572 76.698 0 17.134 5.621 32.953 15.113 45.722l34.682 47.823c5.692 7.848 9.688 16.794 11.736 26.27l2.596 12.013c1.281 5.93 6.526 10.162 12.593 10.162s11.312-4.232 12.593-10.162l2.596-12.013c2.048-9.476 6.044-18.422 11.736-26.269l34.682-47.823c9.721-13.077 15.382-29.353 15.103-46.964-.647-40.941-33.925-74.493-74.858-75.457z" fill="#ee6161"/><path d="m136.038 194.32c-2.048-9.476-6.044-18.422-11.736-26.27l-34.682-47.823c-9.493-12.769-15.113-28.588-15.113-45.722 0-32.108 19.728-59.602 47.72-71.041-41.266 1.262-74.333 35.106-74.333 76.678 0 17.134 5.621 32.953 15.113 45.722l34.682 47.823c5.692 7.848 9.688 16.794 11.736 26.27l2.596 12.013c1.281 5.93 6.526 10.162 12.593 10.162s11.312-4.232 12.593-10.162l1.323-6.12z" fill="#e94444"/><g><path d="m93.164 52.922c7.626-8.81 18.887-14.378 31.451-14.378 22.974 0 41.596 18.628 41.596 41.602 0 10.41-3.821 19.924-10.145 27.218-7.626 8.81-18.887 14.378-31.451 14.378-22.974 0-41.596-18.622-41.596-41.596 0-10.411 3.821-19.925 10.145-27.224z" fill="#f9f7f8"/><path d="m356.837 363.18c-33.24 32.52-78.72 52.56-128.89 52.56s-95.65-20.04-128.89-52.56z" fill="#fdf6ec"/><path d="m139.703 363.18h-40.646c27.487 26.892 63.349 45.236 103.307 50.785-23.765-13.179-44.969-30.413-62.661-50.785z" fill="#fef1da"/><g><path d="m231.157 379.262c-4.143 0-7.5-3.358-7.5-7.5v-58.675c0-4.142 3.357-7.5 7.5-7.5s7.5 3.358 7.5 7.5v58.675c0 4.142-3.357 7.5-7.5 7.5z" fill="#fddeb0"/></g></g><circle cx="231.157" cy="311.502" fill="#ee6161" r="24.131"/></g></svg>